<svg xmlns="http://www.w3.org/2000/svg" class="icon icon-tabler icon-tabler-news" width="250px" height="250px" viewBox="0 0 24 24" stroke-width="1.00" stroke="rgba(1, 1, 1, 1)" fill="none" stroke-linecap="round" stroke-linejoin="round"><circle cx="50%" cy="50%" r="50%" stroke="none" stroke-width="0" fill="rgba(255, 255, 255, 1)"/><g transform="translate(2.40, 2.40) scale(0.8)"><path stroke="none" d="M0 0h24v24H0z" fill="none"/><path d="M16 6h3a1 1 0 0 1 1 1v11a2 2 0 0 1 -4 0v-13a1 1 0 0 0 -1 -1h-10a1 1 0 0 0 -1 1v12a3 3 0 0 0 3 3h11"/><line x1="8" y1="8" x2="12" y2="8"/><line x1="8" y1="12" x2="12" y2="12"/><line x1="8" y1="16" x2="12" y2="16"/></g></svg>